<svg width="80" height="91" viewBox="0 0 80 91" fill="none" xmlns="http://www.w3.org/2000/svg">
<path d="M39.9511 90.7286L7.28062 81.6589L0 0H80L72.7118 81.6464L39.9511 90.7286V90.7286Z" fill="#264DE4"/>
<path d="M66.4723 76.4473L72.7002 6.67664H40V83.7863L66.4723 76.4473V76.4473Z" fill="#2965F1"/>
<path d="M16.6904 36.9629L17.5879 46.978H39.9999V36.9629H16.6904Z" fill="#EBEBEB"/>
<path d="M14.8867 16.6921L15.7971 26.7073H40V16.6921H14.8867V16.6921Z" fill="#EBEBEB"/>
<path d="M39.9999 62.9733L39.956 62.9849L28.8022 59.9732L28.0891 51.9857H18.0354L19.4384 67.711L39.9538 73.4058L39.9999 73.3933V62.9733Z" fill="#EBEBEB"/>
<path d="M63.2454 36.9629L65.0532 16.6921H39.9654V26.7073H54.0776L53.1663 36.9629H39.9654V46.9781H52.298L51.1352 59.967L39.9651 62.9818V73.4012L60.4968 67.7111L60.6473 66.0189L63.0011 39.6523L63.2454 36.9629V36.9629Z" fill="white"/>
</svg>
