<svg width="50" height="50" viewBox="0 0 50 50" fill="none" xmlns="http://www.w3.org/2000/svg">
<path fill-rule="evenodd" clip-rule="evenodd" d="M25 0.616699C11.1875 0.616699 0 11.8042 0 25.6167C0 36.6792 7.15625 46.0229 17.0937 49.3354C18.3437 49.5542 18.8125 48.8042 18.8125 48.1479C18.8125 47.5542 18.7812 45.5854 18.7812 43.4917C12.5 44.6479 10.875 41.9604 10.375 40.5542C10.0937 39.8354 8.875 37.6167 7.8125 37.0229C6.9375 36.5542 5.6875 35.3979 7.78125 35.3667C9.75 35.3354 11.1562 37.1792 11.625 37.9292C13.875 41.7104 17.4687 40.6479 18.9062 39.9917C19.125 38.3667 19.7812 37.2729 20.5 36.6479C14.9375 36.0229 9.125 33.8667 9.125 24.3042C9.125 21.5854 10.0937 19.3354 11.6875 17.5854C11.4375 16.9604 10.5625 14.3979 11.9375 10.9604C11.9375 10.9604 14.0312 10.3042 18.8125 13.5229C20.8125 12.9604 22.9375 12.6792 25.0625 12.6792C27.1875 12.6792 29.3125 12.9604 31.3125 13.5229C36.0937 10.2729 38.1875 10.9604 38.1875 10.9604C39.5625 14.3979 38.6875 16.9604 38.4375 17.5854C40.0313 19.3354 41 21.5542 41 24.3042C41 33.8979 35.1562 36.0229 29.5937 36.6479C30.5 37.4292 31.2812 38.9292 31.2812 41.2729C31.2812 44.6167 31.25 47.3042 31.25 48.1479C31.25 48.8042 31.7187 49.5854 32.9687 49.3354C37.9316 47.6599 42.2441 44.4702 45.2993 40.2154C48.3545 35.9606 49.9985 30.8548 50 25.6167C50 11.8042 38.8125 0.616699 25 0.616699Z" fill="#C9E0E6"/>
</svg>
