<svg width="80" height="91" viewBox="0 0 80 91" fill="none" xmlns="http://www.w3.org/2000/svg">
<path d="M80 0L72.7118 81.6464L39.9511 90.7286L7.28062 81.6589L0 0H80Z" fill="#E44D26"/>
<path d="M40 83.7862L66.4723 76.4473L72.7002 6.67657H40V83.7862Z" fill="#F16529"/>
<path d="M25.832 26.7072H40V16.6921H14.8867L15.1263 19.3789L17.588 46.978H40V36.9629H26.7473L25.832 26.7072V26.7072Z" fill="#EBEBEB"/>
<path d="M28.0891 51.9857H18.0354L19.4384 67.711L39.9538 73.4058L39.9999 73.3933V62.9733L39.956 62.9849L28.8022 59.9732L28.0891 51.9857V51.9857Z" fill="#EBEBEB"/>
<path d="M39.9654 46.978H52.298L51.1352 59.9669L39.9651 62.9818V73.4011L60.4968 67.711L60.6473 66.0189L63.0011 39.6522L63.2454 36.9629H39.9654V46.978Z" fill="white"/>
<path d="M39.9656 26.6828V26.7072H64.1569L64.3576 24.4563L64.8142 19.3789L65.0534 16.6921H39.9656V26.6831V26.6828Z" fill="white"/>
</svg>
