<svg width="46" height="66" viewBox="0 0 46 66" fill="none" xmlns="http://www.w3.org/2000/svg">
<path d="M43.4058 13.4815C46.6914 20.5406 45.9432 28.8684 42.3323 35.6347C39.2744 41.1324 34.8828 45.7843 31.1418 50.8916C29.5153 53.1687 27.8887 55.6085 26.6851 58.2435C26.2622 59.1218 25.9694 60.0327 25.6441 60.9435C25.3188 61.8544 25.026 62.7652 24.7333 63.6761C24.4405 64.5219 24.0827 65.5303 23.0091 65.5303C21.7405 65.5303 21.3826 64.099 21.1224 63.1231C20.3416 60.7483 19.5609 58.4712 18.3573 56.2916C16.991 53.7217 15.2669 51.347 13.5102 49.0373L43.4058 13.4815ZM13.6404 21.3538L2.90528 34.1058C4.88964 38.3023 7.84992 41.8806 10.6801 45.459C11.3632 46.2722 12.0464 47.118 12.697 47.9964L26.2622 31.9263L26.1321 31.9588C21.3826 33.5853 16.1127 31.1781 14.2259 26.4937C13.9657 25.9406 13.7705 25.29 13.6404 24.6394C13.4614 23.5625 13.4614 22.4633 13.6404 21.3864V21.3538V21.3538ZM5.3776 8.99224L5.34507 9.02477C0.0751199 15.6935 -0.835736 24.9647 2.31973 32.8046L15.2994 17.3851L15.1368 17.2225L5.3776 8.99224V8.99224ZM30.2309 1.64034L19.7561 14.0345L19.8862 14.0019C24.2453 12.5055 29.1249 14.3923 31.337 18.361C31.8249 19.2719 32.2153 20.2478 32.3454 21.2237C32.5406 22.4599 32.6057 23.3382 32.3779 24.5418V24.5744L42.7877 12.2128C40.0666 7.26613 35.6022 3.50905 30.2635 1.67287L30.2309 1.64034V1.64034ZM16.1452 16.3767L28.8646 1.24997L28.7345 1.21744C26.8478 0.729483 24.9284 0.469238 23.0091 0.469238C16.6006 0.469238 10.55 3.23433 6.25592 7.98379L6.19086 8.01632L16.1452 16.3767V16.3767Z" fill="#C9E0E6"/>
</svg>
