<svg width="90" height="48" viewBox="0 0 90 48" fill="none" xmlns="http://www.w3.org/2000/svg">
<path d="M45 47.3203C69.8528 47.3203 90 36.7273 90 23.6602C90 10.593 69.8528 0 45 0C20.1472 0 0 10.593 0 23.6602C0 36.7273 20.1472 47.3203 45 47.3203Z" fill="url(#paint0_radial)"/>
<path d="M45 45.5625C68.882 45.5625 88.2422 35.7565 88.2422 23.6602C88.2422 11.5638 68.882 1.75781 45 1.75781C21.118 1.75781 1.75781 11.5638 1.75781 23.6602C1.75781 35.7565 21.118 45.5625 45 45.5625Z" fill="#6181B6"/>
<path d="M53.7539 30.7617L55.8984 19.7227C56.3906 17.2266 55.9687 15.3633 54.7031 14.2031C53.4726 13.0781 51.3633 12.5156 48.2695 12.5156H44.543L45.5976 7.03125C45.6328 6.82031 45.5976 6.60937 45.457 6.43359C45.3164 6.25781 45.1406 6.1875 44.9297 6.1875H39.7969C39.4453 6.1875 39.164 6.43359 39.0937 6.75L36.8086 18.457C36.5976 17.1211 36.1055 15.9961 35.2617 15.082C33.75 13.3594 31.3945 12.4805 28.1953 12.4805H18.3164C17.9648 12.4805 17.6836 12.7266 17.6133 13.043L13.0078 36.8086C12.9726 37.0195 13.0078 37.2305 13.1484 37.4063C13.289 37.582 13.4648 37.6523 13.6758 37.6523H18.8437C19.1953 37.6523 19.4765 37.4063 19.5469 37.0898L20.6719 31.3594H24.5039C26.5078 31.3594 28.2305 31.1484 29.5312 30.7266C30.9023 30.2695 32.1328 29.5313 33.2226 28.5117C34.1015 27.7031 34.8398 26.7891 35.4023 25.8047L34.4883 30.5508C34.4531 30.7617 34.4883 30.9727 34.6289 31.1484C34.7695 31.3242 34.9453 31.3945 35.1562 31.3945H40.289C40.6406 31.3945 40.9219 31.1484 40.9922 30.832L43.5234 17.8242H47.039C48.5508 17.8242 48.9726 18.1055 49.1133 18.2461C49.2187 18.3516 49.4297 18.7734 49.1836 20.0742L47.1445 30.5859C47.1094 30.7969 47.1445 31.0078 47.2851 31.1836C47.4258 31.3594 47.6015 31.4297 47.8125 31.4297H53.0859C53.4023 31.3242 53.6836 31.0781 53.7539 30.7617ZM29.9883 21.6211C29.6719 23.2734 29.0742 24.4688 28.1953 25.1367C27.3164 25.8047 25.875 26.1563 23.9765 26.1563H21.6914L23.3437 17.6484H26.2969C28.4765 17.6484 29.3555 18.1055 29.707 18.4922C30.164 19.0547 30.2695 20.1445 29.9883 21.6211V21.6211Z" fill="white"/>
<path d="M75.6914 15.082C74.1797 13.3594 71.8242 12.4805 68.625 12.4805H58.6758C58.3242 12.4805 58.043 12.7266 57.9726 13.043L53.3672 36.7734C53.332 36.9844 53.3672 37.1953 53.5078 37.3711C53.6484 37.5469 53.8242 37.6172 54.0351 37.6172H59.2031C59.5547 37.6172 59.8359 37.3711 59.9062 37.0547L61.0312 31.3242H64.8633C66.8672 31.3242 68.5898 31.1133 69.8906 30.6914C71.2617 30.2344 72.4922 29.4961 73.582 28.4766C74.4961 27.6328 75.2695 26.6836 75.832 25.6641C76.3945 24.6445 76.8164 23.5195 77.0625 22.2891C77.6601 19.2305 77.2031 16.8398 75.6914 15.082V15.082ZM70.3125 21.6211C69.9961 23.2734 69.3984 24.4688 68.5195 25.1367C67.6406 25.8047 66.1992 26.1563 64.3008 26.1563H62.0156L63.668 17.6484H66.6211C68.8008 17.6484 69.6797 18.1055 70.0312 18.4922C70.5234 19.0547 70.6289 20.1445 70.3125 21.6211Z" fill="white"/>
<path d="M26.2969 16.9453C28.2656 16.9453 29.5664 17.2969 30.2344 18.0352C30.9023 18.7734 31.043 20.0039 30.6914 21.7617C30.3398 23.5898 29.6367 24.9258 28.6172 25.6992C27.5977 26.4727 26.0508 26.8594 23.9766 26.8594H20.8477L22.7813 16.9453H26.2969V16.9453ZM13.7109 36.9141H18.8789L20.1094 30.6211H24.5391C26.5078 30.6211 28.0898 30.4102 29.3555 29.9883C30.6211 29.5664 31.7461 28.8984 32.8008 27.9141C33.6797 27.1055 34.3828 26.2266 34.9102 25.2773C35.4375 24.3281 35.8242 23.2734 36.0352 22.1133C36.5977 19.3008 36.1758 17.1211 34.8047 15.5391C33.4336 13.957 31.2539 13.1836 28.2656 13.1836H18.3164L13.7109 36.9141Z" fill="#000004"/>
<path d="M39.832 6.89062H44.9648L43.7344 13.1836H48.3047C51.1875 13.1836 53.1563 13.6758 54.2461 14.6953C55.3359 15.7148 55.6523 17.332 55.2305 19.582L53.0859 30.6211H47.8828L49.9219 20.1094C50.168 18.9141 50.0625 18.1055 49.6758 17.6836C49.2891 17.2617 48.4102 17.0156 47.1094 17.0156H42.9961L40.3594 30.6211H35.2266L39.832 6.89062V6.89062Z" fill="#000004"/>
<path d="M66.6211 16.9453C68.5898 16.9453 69.8906 17.2969 70.5586 18.0352C71.2266 18.7734 71.3672 20.0039 71.0156 21.7617C70.6641 23.5898 69.9609 24.9258 68.9414 25.6992C67.9219 26.4727 66.375 26.8594 64.3008 26.8594H61.1719L63.1055 16.9453H66.6211ZM54.0352 36.9141H59.2031L60.4336 30.6211H64.8633C66.832 30.6211 68.4141 30.4102 69.6797 29.9883C70.9453 29.5664 72.0703 28.8984 73.125 27.9141C74.0039 27.1055 74.707 26.2266 75.2344 25.2773C75.7617 24.3281 76.1484 23.2734 76.3594 22.1133C76.9219 19.3008 76.5 17.1211 75.1289 15.5391C73.7578 13.957 71.5781 13.1836 68.5898 13.1836H58.6406L54.0352 36.9141Z" fill="#000004"/>
<defs>
<radialGradient id="paint0_radial" cx="0" cy="0" r="1" gradientUnits="userSpaceOnUse" gradientTransform="translate(27.0181 8.32061) scale(59.096)">
<stop stop-color="white"/>
<stop offset="0.5" stop-color="#4C6B97"/>
<stop offset="1" stop-color="#231F20"/>
</radialGradient>
</defs>
</svg>
