<svg width="85" height="33" viewBox="0 0 85 33" fill="none" xmlns="http://www.w3.org/2000/svg">
<path d="M62.5576 26.271L65.0132 20.0615H72.1032L68.7387 10.6419L72.9467 0L84.9999 32.0028H76.1111L74.0514 26.271H62.5576Z" fill="#3D3D3D"/>
<path d="M54.9744 32.0028L67.8777 0H59.3232L50.4966 20.6809L44.2199 0.000166016H37.6446L30.9051 20.6809L26.1523 11.2572L21.8513 24.5081L26.2182 32.0028H34.6368L40.727 13.4566L46.5335 32.0028H54.9744Z" fill="#5A0FC8"/>
<path d="M8.12016 21.0168H13.3892C14.9852 21.0168 16.4065 20.8386 17.6529 20.4822L19.0156 16.2841L22.824 4.55115C22.5315 4.08811 22.199 3.65159 21.8302 3.2466C19.8747 1.08209 17.0139 0 13.2472 0H0V32.0028H8.12016V21.0168V21.0168ZM15.0945 7.36246C15.8583 8.13111 16.2401 9.15991 16.2401 10.4487C16.2401 11.7473 15.9043 12.7772 15.2326 13.5384C14.4963 14.3843 13.1405 14.8071 11.1652 14.8071H8.12016V6.20965H11.1875C13.0286 6.20965 14.3308 6.59398 15.0945 7.36263V7.36246Z" fill="#3D3D3D"/>
</svg>
