<svg width="80" height="60" viewBox="0 0 80 60" fill="none" xmlns="http://www.w3.org/2000/svg">
<path d="M68.8784 34.4845C66.3664 34.4878 63.888 35.0623 61.6306 36.1644C60.9238 34.9915 60.378 33.7289 60.0079 32.4105C59.7952 31.377 59.7461 30.3166 59.8622 29.2679C60.1064 28.114 60.4232 26.9766 60.8107 25.8626C60.7964 25.7169 60.6364 25.0284 59.028 25.0055C57.4196 24.9827 56.034 25.3112 55.8855 25.7369C55.6061 26.5144 55.3818 27.3105 55.2141 28.1195C53.8829 31.4035 52.2444 34.5543 50.3203 37.5299C49.2423 35.7627 48.7989 33.6808 49.0633 31.6277C49.3075 30.4737 49.6243 29.3364 50.0118 28.2223C49.9975 28.0766 49.8375 27.3881 48.2291 27.3653C46.6207 27.3424 45.2351 27.671 45.0866 28.0966C44.938 28.5223 44.7494 29.5251 44.4152 30.4792C44.0809 31.4334 40.1785 40.1525 39.1557 42.4009C38.6301 43.5436 38.1758 44.475 37.8559 45.1035C37.8407 45.1443 37.8216 45.1835 37.7987 45.2206L37.3616 46.0548V46.0691C37.1417 46.4633 36.9074 46.829 36.7903 46.829C36.586 46.0128 36.5958 45.1577 36.8188 44.3464C37.3902 41.321 38.7901 36.6186 38.7758 36.4558C38.7758 36.3672 39.0386 35.5502 37.8701 35.1273C37.5992 34.9984 37.2948 34.9566 36.9991 35.0078C36.7034 35.0589 36.4308 35.2005 36.2189 35.413C36.116 35.413 36.0446 35.6616 36.0446 35.6616C36.0446 35.6616 37.3159 30.3735 33.6192 30.3735C32.1796 30.6631 30.8124 31.2376 29.5981 32.0634C28.3839 32.8891 27.347 33.9493 26.5484 35.1816C25.5543 35.7216 23.4373 36.8757 21.1719 38.1185C20.3148 38.6013 19.4177 39.0841 18.5864 39.5469C18.5293 39.4897 18.4693 39.4155 18.4121 39.3583C13.9126 34.5645 5.64201 31.182 5.99912 24.7684C6.13053 22.4315 6.93331 16.295 21.8804 8.84145C34.182 2.77921 43.9724 4.45904 45.6665 8.18437C48.092 13.5038 40.4213 23.38 27.7112 24.8112C26.3051 25.0965 24.8528 25.0621 23.4618 24.7105C22.0708 24.3589 20.7766 23.6992 19.6749 22.78C19.0035 22.0487 18.9007 22.0058 18.6521 22.1515C18.2436 22.3715 18.5064 23.0286 18.6521 23.4085C19.137 24.286 19.7928 25.0574 20.5809 25.6771C21.3689 26.2969 22.2732 26.7524 23.2402 27.0167C28.2404 28.0973 33.4536 27.5806 38.1444 25.5397C45.8579 22.56 51.8573 14.2752 50.0975 7.33589C48.3291 0.293751 36.6417 -2.02887 25.58 1.90787C18.6514 4.23927 12.2494 7.91155 6.73904 12.7153C0.645382 18.4148 -0.317377 23.3657 0.076868 25.4426C1.50529 32.8076 11.65 37.5985 15.7096 41.1553C15.5261 41.2596 15.3414 41.3615 15.1553 41.461C13.1241 42.4694 5.38204 46.5176 3.44224 50.7972C1.25103 55.6538 3.79363 59.1249 5.47346 59.5934C8.00465 60.1993 10.6619 59.9997 13.0741 59.0225C15.4864 58.0453 17.5334 56.3393 18.9292 54.1425C20.1179 52.3205 20.8485 50.2381 21.0589 48.0728C21.2693 45.9075 20.9533 43.7235 20.1377 41.7067C20.1239 41.6741 20.1046 41.6441 20.0805 41.6181L21.6718 40.6839C22.6387 40.1123 23.6179 39.5618 24.6086 39.0327C24.0139 40.748 23.6648 42.5389 23.5716 44.3521C23.3697 47.1312 24.2202 49.8845 25.9542 52.0656C26.2181 52.2927 26.5244 52.4653 26.8554 52.5731C27.1864 52.681 27.5356 52.7221 27.8826 52.6941C29.5967 52.6941 30.3823 51.2657 31.2423 49.5687C32.2936 47.4946 33.242 45.0835 33.242 45.0835C33.242 45.0835 32.0593 51.5999 35.2733 51.5999C36.4417 51.5999 37.6245 50.0801 38.153 49.3145V49.3287L38.2415 49.183L38.4301 48.8774V48.8488C38.8986 48.0317 39.9499 46.1748 41.5126 43.0922C43.5296 39.1184 45.4722 34.1503 45.4722 34.1503C45.6596 35.2421 45.9182 36.3205 46.2464 37.3785C46.717 38.6611 47.2734 39.9104 47.912 41.1182C47.4435 41.7752 47.1521 42.1409 47.1521 42.1409L47.1663 42.1552C46.7864 42.6523 46.3779 43.1922 45.9236 43.7179C44.5721 45.2037 43.3182 46.7754 42.1697 48.4231C41.9991 48.6999 41.9404 49.0313 42.0057 49.3498C42.071 49.6683 42.2553 49.9499 42.5211 50.1372C43.1225 50.4502 43.808 50.5632 44.478 50.4601C45.4878 50.403 46.4807 50.1761 47.4149 49.7887C48.3177 49.471 49.1694 49.0235 49.9432 48.4603C50.7409 47.9076 51.383 47.159 51.8078 46.2864C52.2326 45.4139 52.4257 44.4467 52.3687 43.4779C52.2788 42.2576 51.9671 41.0639 51.4488 39.9554C51.5945 39.7497 51.7344 39.5469 51.8716 39.3412C53.4958 36.9168 54.9597 34.3888 56.254 31.7734C56.4414 32.8652 56.7 33.9436 57.0282 35.0016C57.4163 36.11 57.894 37.1848 58.4566 38.2156C56.5881 39.6532 55.1163 41.5428 54.1799 43.7065C53.26 46.3662 53.9742 47.5632 55.3226 47.8403C56.0605 47.8912 56.7983 47.7401 57.4567 47.4032C58.4248 47.085 59.3369 46.6165 60.1593 46.0148C61.0265 45.503 61.7529 44.7836 62.273 43.9214C62.7931 43.0591 63.0907 42.0811 63.139 41.0753C63.0741 40.0713 62.8474 39.0844 62.4676 38.1527C64.9334 37.1894 67.6069 36.8823 70.2268 37.2614C77.1804 38.0785 78.5546 42.418 78.2917 44.2464C78.1685 44.8946 77.9079 45.5089 77.5275 46.0479C77.147 46.587 76.6556 47.0384 76.0862 47.3718C75.6034 47.6775 75.4435 47.7803 75.4863 48.0003C75.5434 48.3231 75.772 48.306 76.1862 48.2489C77.2342 47.9231 78.1589 47.2874 78.8383 46.4254C79.5176 45.5635 79.9197 44.5159 79.9916 43.4208C80.2115 39.1355 76.1205 34.436 68.887 34.4788L68.8784 34.4845ZM15.2267 52.5627C12.9184 55.0767 9.70445 56.0252 8.31603 55.2224C6.82475 54.3654 7.4104 50.6515 10.2444 47.9889C11.9255 46.4756 13.7425 45.1205 15.6724 43.9407C16.0095 43.735 16.5066 43.4436 17.1008 43.0837L17.2608 42.9951L17.6122 42.7751C18.1185 44.4715 18.1644 46.272 17.7452 47.992C17.326 49.712 16.4568 51.2895 15.2267 52.5627V52.5627ZM32.0279 41.1353C31.2251 43.0922 29.5453 48.106 28.5225 47.826C27.6455 47.5918 27.0941 43.7922 28.3483 40.0383C28.9815 38.2312 29.9039 36.5389 31.0794 35.0273C32.3364 33.6246 33.7249 33.1561 34.0591 33.7275C33.7542 36.284 33.0696 38.7808 32.0279 41.1353V41.1353ZM45.8922 47.7689C45.5551 47.9432 45.2351 48.0546 45.0894 47.9746C44.9866 47.9175 45.2351 47.6889 45.2351 47.6889C45.2351 47.6889 46.9749 45.8177 47.6606 44.972C48.0548 44.475 48.5176 43.8922 49.0204 43.2322V43.4208C49.0204 45.6548 46.8578 47.1604 45.895 47.7746L45.8922 47.7689ZM56.5882 45.3292C56.3397 45.1549 56.3825 44.5692 57.2167 42.7437C57.7968 41.5713 58.6071 40.5278 59.5994 39.6754C59.7515 40.1079 59.8306 40.5626 59.8336 41.021C59.8449 41.9967 59.5329 42.9488 58.9463 43.7286C58.3598 44.5084 57.5317 45.0722 56.5911 45.332L56.5882 45.3292Z" fill="#CD6799"/>
</svg>
