<svg width="80" height="80" viewBox="0 0 80 80" fill="none" xmlns="http://www.w3.org/2000/svg">
<path d="M78.491 36.4369L43.5713 1.50833C42.6046 0.542517 41.2941 0 39.9276 0C38.5611 0 37.2505 0.542517 36.2838 1.50833L29.0231 8.76369L38.2231 17.9637C43.0553 16.3315 47.6303 20.9583 45.9713 25.7637L54.8392 34.6315C60.9517 32.5244 65.7642 40.1673 61.1731 44.7548C56.4428 49.4851 48.6356 44.2423 51.1731 38.0869L42.8963 29.8208V51.5798C47.4142 53.8191 46.8713 59.053 44.5178 61.4012C43.3679 62.5504 41.8087 63.196 40.1829 63.196C38.5572 63.196 36.998 62.5504 35.8481 61.4012C32.7106 58.2583 33.8713 53.0244 37.857 51.4012V29.4369C34.1428 27.9173 33.4642 23.9476 34.5285 21.4012L25.4588 12.3208L1.50883 36.2744C0.542574 37.2409 -0.000244141 38.5515 -0.000244141 39.9182C-0.000244141 41.2848 0.542574 42.5955 1.50883 43.5619L36.4392 78.4905C37.4056 79.4562 38.7159 79.9987 40.082 79.9987C41.4482 79.9987 42.7585 79.4562 43.7249 78.4905L78.491 43.7244C79.4572 42.758 80 41.4473 80 40.0807C80 38.714 79.4572 37.4034 78.491 36.4369V36.4369Z" fill="#EF4F32"/>
</svg>
