<svg width="80" height="55" viewBox="0 0 80 55" fill="none" xmlns="http://www.w3.org/2000/svg">
<path d="M10.0085 48.2739H9.09448V54.7868H10.0085V48.2739Z" fill="#090D18"/>
<path d="M14.3166 52.1299C14.0447 52.0565 13.7657 52.0126 13.4845 51.9988H13.432H13.3698H13.3141C13.0651 51.9825 12.8751 51.9661 12.7408 51.9464C12.6235 51.9284 12.5117 51.8847 12.4132 51.8187C12.3697 51.7862 12.335 51.7435 12.3121 51.6943C12.2892 51.6451 12.2789 51.591 12.2821 51.5369C12.2766 51.4444 12.2952 51.352 12.3359 51.2688C12.3767 51.1855 12.4383 51.1143 12.5147 51.0619C12.7261 50.9399 12.9691 50.884 13.2125 50.9013C13.4355 50.9031 13.6568 50.9407 13.8678 51.0127C14.11 51.0926 14.3411 51.2026 14.5558 51.3403L15.1062 50.6851C14.7503 50.4121 14.3387 50.2208 13.9005 50.1249C13.6716 50.0809 13.4391 50.059 13.206 50.0594C12.8654 50.048 12.5259 50.1037 12.2068 50.2232C11.9595 50.3169 11.7492 50.4882 11.6072 50.7113C11.4655 50.9615 11.3963 51.2463 11.4074 51.5336C11.3902 51.8018 11.4628 52.0681 11.6138 52.2904C11.7477 52.4597 11.9291 52.5852 12.1347 52.6508C12.3849 52.7213 12.6419 52.7652 12.9013 52.7818H12.9734H13.0487H13.1274C13.3927 52.8015 13.5991 52.8277 13.7433 52.8506C13.876 52.8704 14.0019 52.9222 14.1102 53.0013C14.1588 53.0405 14.1975 53.0906 14.2232 53.1475C14.2488 53.2044 14.2606 53.2666 14.2576 53.329C14.2627 53.429 14.2404 53.5286 14.1931 53.617C14.1457 53.7053 14.0752 53.779 13.989 53.8302C13.7389 53.9603 13.4578 54.0192 13.1765 54.0006C12.924 53.9981 12.6742 53.9492 12.4394 53.8564C12.1718 53.7484 11.9205 53.604 11.6924 53.4272L11.1519 54.0825C11.3233 54.2443 11.5175 54.3801 11.7285 54.4854C11.9417 54.5958 12.1686 54.6773 12.4033 54.7279C12.6571 54.7845 12.9165 54.812 13.1765 54.8098C13.5451 54.8205 13.9126 54.7639 14.2609 54.6427C14.5273 54.5535 14.7574 54.3798 14.9161 54.148C15.0659 53.8982 15.1399 53.6102 15.1291 53.3191C15.1501 53.0201 15.068 52.723 14.8965 52.4772C14.7442 52.3036 14.5414 52.1822 14.3166 52.1299Z" fill="#090D18"/>
<path d="M18.9394 50.2723C18.632 50.1293 18.2955 50.0597 17.9566 50.0692C17.6281 50.065 17.302 50.1251 16.9967 50.2461C16.7266 50.3505 16.4867 50.5205 16.2988 50.7408L16.9541 51.1962C17.0971 51.0919 17.2565 51.0122 17.4258 50.9603C17.6017 50.9044 17.7851 50.8757 17.9697 50.8751C18.0965 50.8675 18.2236 50.886 18.3431 50.9294C18.4625 50.9728 18.5718 51.0401 18.6642 51.1274C18.836 51.3229 18.9231 51.5786 18.9066 51.8383V52.0349H17.6322C17.2125 51.9985 16.7937 52.1148 16.4528 52.3625C16.3141 52.4957 16.2063 52.6578 16.1373 52.8372C16.0682 53.0167 16.0395 53.2092 16.0531 53.401C16.0379 53.6017 16.0684 53.8032 16.1421 53.9904C16.2159 54.1777 16.331 54.3458 16.479 54.4822C16.8533 54.7479 17.3088 54.8742 17.7665 54.8393C17.9433 54.8417 18.1195 54.8208 18.2907 54.777C18.4369 54.7419 18.5756 54.6809 18.7002 54.5968C18.7756 54.5423 18.8439 54.4784 18.9034 54.4068V54.7705H19.7715V51.7859C19.7806 51.4606 19.7073 51.1384 19.5586 50.8489C19.4153 50.5985 19.1994 50.3974 18.9394 50.2723V50.2723ZM18.6544 53.9973C18.4041 54.0846 18.1393 54.1225 17.8747 54.1087C17.6247 54.1273 17.3751 54.0678 17.1605 53.9383C17.0808 53.8773 17.0176 53.7975 16.9764 53.706C16.9353 53.6145 16.9174 53.5142 16.9246 53.4141C16.9175 53.3254 16.9296 53.2361 16.9601 53.1524C16.9906 53.0687 17.0389 52.9926 17.1015 52.9293C17.253 52.8106 17.4437 52.7533 17.6355 52.7687H18.9132V53.6468C18.9127 53.725 18.8873 53.8012 18.8408 53.8641C18.7943 53.9271 18.729 53.9737 18.6544 53.9973V53.9973Z" fill="#090D18"/>
<path d="M24.1419 50.2887C23.8871 50.1358 23.5936 50.0596 23.2966 50.0692C23.0283 50.0666 22.7651 50.143 22.5398 50.2887C22.3565 50.4121 22.2013 50.5729 22.0845 50.7605V48.2739H21.1704V54.7835H22.0845V54.184C22.1793 54.3706 22.3217 54.5288 22.4972 54.6427C22.7229 54.7866 22.9865 54.8596 23.254 54.8523C23.5585 54.8602 23.8592 54.7831 24.1222 54.6296C24.3705 54.475 24.5632 54.2456 24.6726 53.9743C24.8057 53.6538 24.8704 53.309 24.8626 52.962V51.9497C24.8707 51.599 24.8083 51.2504 24.6792 50.9243C24.5682 50.6631 24.3809 50.4416 24.1419 50.2887V50.2887ZM23.9486 52.9751C23.967 53.2561 23.878 53.5337 23.6996 53.7516C23.6096 53.8455 23.5004 53.9187 23.3793 53.9662C23.2582 54.0138 23.1283 54.0344 22.9985 54.0268C22.8268 54.0326 22.6564 53.9943 22.5038 53.9154C22.3622 53.8442 22.2473 53.7293 22.1762 53.5878C22.1 53.4284 22.063 53.2532 22.0681 53.0767V51.8088C22.0633 51.6365 22.1004 51.4656 22.1762 51.3108C22.2457 51.1681 22.3611 51.0528 22.5038 50.9832C22.6573 50.9071 22.8272 50.8699 22.9985 50.8751C23.1289 50.8678 23.2592 50.8893 23.3804 50.938C23.5015 50.9867 23.6105 51.0614 23.6996 51.1569C23.8774 51.3815 23.966 51.6638 23.9486 51.9497V52.9751Z" fill="#090D18"/>
<path d="M28.9774 50.3608C28.6887 50.1624 28.3447 50.0603 27.9946 50.0692C27.6253 50.0583 27.2599 50.1465 26.9364 50.3247C26.6464 50.499 26.4175 50.7588 26.2812 51.0684C26.1174 51.4384 26.0379 51.8401 26.0485 52.2446V52.7687C26.0383 53.1591 26.1202 53.5463 26.2877 53.899C26.4392 54.2038 26.6835 54.4528 26.9855 54.6099C27.3271 54.7795 27.7051 54.8627 28.0863 54.8524C28.3837 54.8501 28.6777 54.7889 28.9512 54.6722C29.239 54.5491 29.5021 54.3748 29.7276 54.1578L29.1248 53.5583C28.9844 53.6974 28.8187 53.8086 28.6367 53.8859C28.4621 53.9579 28.2752 53.9958 28.0863 53.9973C27.9285 54.0071 27.7704 53.9845 27.6217 53.931C27.473 53.8775 27.3367 53.7941 27.2214 53.6861C27.0147 53.4543 26.9066 53.1511 26.92 52.8408H29.8128V52.5361C29.8226 52.0897 29.7492 51.6453 29.5966 51.2257C29.4821 50.8815 29.2663 50.5801 28.9774 50.3608V50.3608ZM26.9003 52.0906C26.8958 51.7805 26.9937 51.4777 27.1788 51.2289C27.279 51.1161 27.4038 51.0279 27.5436 50.9711C27.6833 50.9143 27.8343 50.8904 27.9847 50.9013C28.1157 50.898 28.2456 50.926 28.3635 50.9829C28.4815 51.0399 28.5841 51.1243 28.6629 51.2289C28.8476 51.4874 28.9492 51.7959 28.9545 52.1135L26.9003 52.0906Z" fill="#090D18"/>
<path d="M32.0668 53.8466C32.0125 53.7704 31.9859 53.6779 31.9914 53.5845V48.2739H31.0774V53.5747C31.0565 53.903 31.158 54.2275 31.3624 54.4854C31.4645 54.5958 31.5896 54.6823 31.7289 54.7389C31.8682 54.7955 32.0182 54.8208 32.1684 54.813H32.7056V53.9449H32.2732C32.2334 53.9464 32.1938 53.9383 32.1579 53.9212C32.1219 53.9041 32.0907 53.8785 32.0668 53.8466V53.8466Z" fill="#090D18"/>
<path d="M36.3423 50.2723C36.0348 50.1296 35.6984 50.0601 35.3595 50.0692C35.0299 50.0647 34.7027 50.1248 34.3963 50.2461C34.1272 50.3506 33.8884 50.5207 33.7017 50.7408L34.357 51.1962C34.5008 51.0912 34.6614 51.0115 34.832 50.9603C35.0078 50.9041 35.1913 50.8754 35.3758 50.8751C35.5022 50.8676 35.6288 50.8861 35.7477 50.9295C35.8666 50.9729 35.9753 51.0402 36.0671 51.1274C36.24 51.3224 36.3284 51.5781 36.3128 51.8383V52.0349H35.0318C34.612 51.9973 34.1928 52.1138 33.8524 52.3625C33.5953 52.6571 33.4567 53.0367 33.4634 53.4276C33.47 53.8186 33.6215 54.1932 33.8885 54.4789C34.4291 54.811 35.0788 54.9169 35.6969 54.7737C35.8433 54.7393 35.9821 54.6782 36.1064 54.5936C36.1835 54.5399 36.253 54.476 36.3128 54.4035V54.7672H37.181V51.7826C37.1906 51.4569 37.1161 51.1342 36.9648 50.8457C36.8204 50.5957 36.6033 50.3957 36.3423 50.2723V50.2723ZM36.0573 53.9973C35.8059 54.0846 35.54 54.1224 35.2743 54.1087C35.0243 54.1269 34.7749 54.0674 34.5601 53.9383C34.4203 53.811 34.3362 53.6339 34.3258 53.4452C34.3153 53.2565 34.3795 53.0712 34.5044 52.9293C34.6559 52.8106 34.8466 52.7533 35.0384 52.7688H36.3161V53.6468C36.3151 53.7249 36.2895 53.8008 36.2431 53.8637C36.1967 53.9266 36.1317 53.9733 36.0573 53.9973Z" fill="#090D18"/>
<path d="M44.4801 48.5032C44.1102 48.3075 43.698 48.2053 43.2794 48.2053C42.8609 48.2053 42.4487 48.3075 42.0787 48.5032C41.7348 48.6996 41.4558 48.9923 41.2761 49.3452C41.0797 49.7361 40.9818 50.1691 40.991 50.6065V52.4509C40.9801 52.8941 41.0792 53.3331 41.2793 53.7286C41.4591 54.0815 41.7381 54.3742 42.082 54.5706C42.452 54.7663 42.8642 54.8685 43.2827 54.8685C43.7012 54.8685 44.1134 54.7663 44.4834 54.5706C44.8273 54.3742 45.1063 54.0815 45.2861 53.7286C45.4825 53.3377 45.5803 52.9047 45.5711 52.4673V50.6229C45.5803 50.1855 45.4825 49.7525 45.2861 49.3615C45.1081 49.0021 44.8276 48.7035 44.4801 48.5032V48.5032ZM44.6308 52.4837C44.6363 52.7509 44.5791 53.0157 44.4638 53.2569C44.359 53.471 44.1938 53.6498 43.9887 53.7712C43.771 53.8894 43.5272 53.9512 43.2794 53.9512C43.0317 53.9512 42.7879 53.8894 42.5701 53.7712C42.365 53.6498 42.1999 53.471 42.0951 53.2569C41.9798 53.0157 41.9225 52.7509 41.928 52.4837V50.5737C41.9225 50.3065 41.9798 50.0417 42.0951 49.8005C42.1999 49.5864 42.365 49.4076 42.5701 49.2862C42.7879 49.1681 43.0317 49.1062 43.2794 49.1062C43.5272 49.1062 43.771 49.1681 43.9887 49.2862C44.1938 49.4076 44.359 49.5864 44.4638 49.8005C44.5791 50.0417 44.6363 50.3065 44.6308 50.5737V52.4837Z" fill="#090D18"/>
<path d="M47.9462 53.8466C47.8903 53.7711 47.8636 53.6781 47.8708 53.5845V48.2739H46.9568V53.5747C46.9359 53.903 47.0374 54.2275 47.2418 54.4854C47.3434 54.5955 47.468 54.6819 47.6067 54.7385C47.7454 54.7952 47.8948 54.8206 48.0445 54.813H48.5818V53.9449H48.1591C48.1183 53.9475 48.0774 53.9399 48.0402 53.9228C48.003 53.9056 47.9707 53.8794 47.9462 53.8466V53.8466Z" fill="#090D18"/>
<path d="M50.5278 48.2739H49.6138V49.1879H50.5278V48.2739Z" fill="#090D18"/>
<path d="M50.5278 50.1347H49.6138V54.7835H50.5278V50.1347Z" fill="#090D18"/>
<path d="M53.5125 53.4534L52.3757 50.1347H51.4224L53.1685 54.7835H53.8598L55.606 50.1347H54.6526L53.5125 53.4534Z" fill="#090D18"/>
<path d="M59.2293 50.3608C58.9406 50.1624 58.5966 50.0603 58.2465 50.0692C57.8772 50.0583 57.5118 50.1465 57.1883 50.3247C56.8983 50.499 56.6694 50.7588 56.533 51.0684C56.3693 51.4384 56.2898 51.8401 56.3004 52.2446V52.7687C56.2886 53.1592 56.3706 53.5468 56.5396 53.899C56.6911 54.2038 56.9354 54.4528 57.2374 54.6099C57.579 54.7795 57.957 54.8627 58.3382 54.8524C58.6356 54.8501 58.9296 54.7889 59.2031 54.6722C59.4909 54.5491 59.754 54.3748 59.9795 54.1578L59.3767 53.5583C59.2363 53.6974 59.0706 53.8086 58.8886 53.8859C58.714 53.9579 58.5271 53.9958 58.3382 53.9973C58.1804 54.0071 58.0223 53.9845 57.8736 53.931C57.7249 53.8775 57.5886 53.7941 57.4733 53.6861C57.2666 53.4543 57.1585 53.1511 57.1719 52.8408H60.0975V52.5361C60.1072 52.0897 60.0339 51.6453 59.8813 51.2257C59.758 50.8772 59.5303 50.5752 59.2293 50.3608V50.3608ZM57.1522 52.0906C57.1477 51.7805 57.2456 51.4777 57.4307 51.2289C57.5309 51.1161 57.6557 51.0279 57.7955 50.9711C57.9352 50.9143 58.0862 50.8904 58.2366 50.9013C58.3676 50.898 58.4975 50.926 58.6154 50.9829C58.7334 51.0399 58.836 51.1243 58.9148 51.2289C59.0995 51.4874 59.2011 51.7959 59.2064 52.1135L57.1522 52.0906Z" fill="#090D18"/>
<path d="M62.2434 48.2739H61.3293V49.1879H62.2434V48.2739Z" fill="#090D18"/>
<path d="M62.2434 50.1347H61.3293V54.7835H62.2434V50.1347Z" fill="#090D18"/>
<path d="M65.7585 50.0692C65.4909 50.0672 65.2291 50.1473 65.0083 50.2985C64.8205 50.425 64.661 50.5889 64.5398 50.7801V50.1249H63.6257V54.7737H64.5398V51.8252C64.5341 51.7056 64.5523 51.586 64.5934 51.4735C64.6344 51.361 64.6975 51.2578 64.7789 51.17C64.8695 51.0867 64.976 51.0227 65.092 50.9816C65.2079 50.9405 65.331 50.9232 65.4538 50.9308C65.5993 50.9288 65.7438 50.9543 65.8797 51.0062C65.9978 51.0562 66.1023 51.1337 66.1844 51.2322L66.7774 50.4263C66.6495 50.3038 66.4963 50.211 66.3285 50.1544C66.1449 50.0933 65.952 50.0645 65.7585 50.0692Z" fill="#090D18"/>
<path d="M70.1977 50.2723C69.8904 50.1289 69.5538 50.0594 69.2149 50.0692C68.8864 50.065 68.5603 50.1251 68.2549 50.2461C67.9849 50.3505 67.745 50.5205 67.5571 50.7408L68.2124 51.1962C68.3554 51.0919 68.5148 51.0122 68.6841 50.9603C68.86 50.9044 69.0434 50.8757 69.228 50.8751C69.3548 50.8673 69.482 50.8857 69.6014 50.9291C69.7209 50.9725 69.8302 51.04 69.9225 51.1274C70.0942 51.3229 70.1814 51.5786 70.1649 51.8383V52.0349H68.884C68.4652 51.9978 68.0472 52.1143 67.7078 52.3625C67.572 52.4972 67.4674 52.6599 67.4011 52.8393C67.3349 53.0187 67.3088 53.2105 67.3245 53.401C67.3087 53.6015 67.3385 53.8029 67.4117 53.9901C67.4849 54.1774 67.5996 54.3456 67.7471 54.4822C68.2889 54.8144 68.9397 54.9203 69.5589 54.777C69.705 54.7419 69.8437 54.6809 69.9684 54.5968C70.0438 54.5423 70.112 54.4784 70.1715 54.4068V54.7705H71.0397V51.7859C71.0487 51.4606 70.9754 51.1384 70.8267 50.8489C70.6809 50.597 70.4613 50.3958 70.1977 50.2723V50.2723ZM69.916 53.9973C69.6646 54.0846 69.3987 54.1224 69.133 54.1087C68.883 54.1273 68.6334 54.0678 68.4188 53.9383C68.3391 53.8773 68.2759 53.7975 68.2347 53.706C68.1936 53.6145 68.1757 53.5142 68.1829 53.4141C68.1757 53.3254 68.1879 53.2361 68.2184 53.1524C68.2489 53.0687 68.2972 52.9926 68.3598 52.9293C68.5115 52.8109 68.702 52.7537 68.8938 52.7688H70.1715V53.6468C70.1712 53.7246 70.1463 53.8004 70.1004 53.8634C70.0546 53.9263 69.99 53.9732 69.916 53.9973Z" fill="#090D18"/>
<path d="M56.7526 11.1618L62.3614 5.55305L56.4545 0L51.1799 5.6153L56.4545 10.8899L56.7526 11.1618Z" fill="#090D18"/>
<path d="M68.6877 22.1336L56.4546 33.9277V44.3196L80.0002 22.1336L64.124 7.20749L58.5317 12.7999L68.6877 22.1336Z" fill="#090D18"/>
<path d="M21.4685 31.9227L11.3125 22.1336L23.5489 10.8899V0L0 22.1336L16.0957 37.2988L21.4685 31.9227Z" fill="#090D18"/>
<path d="M27.1624 29.6327L27.1657 29.6359L23.254 33.5476L17.8484 38.9533L23.5489 44.3196V44.2737L23.5947 44.3196L51.1143 16.8L45.5547 11.2404L27.1624 29.6327Z" fill="#090D18"/>
</svg>
